<?xml version="1.0" standalone="no"?>
<!DOCTYPE svg PUBLIC "-//W3C//DTD SVG 20010904//EN"
 "http://www.w3.org/TR/2001/REC-SVG-20010904/DTD/svg10.dtd">
<svg version="1.0" xmlns="http://www.w3.org/2000/svg"
 width="920.000000pt" height="920.000000pt" viewBox="0 0 920.000000 920.000000"
 preserveAspectRatio="xMidYMid meet">
<metadata>
Created by potrace 1.14, written by Peter Selinger 2001-2017
</metadata>
<g transform="translate(0.000000,920.000000) scale(0.100000,-0.100000)"
fill="#000000" stroke="none">
<path d="M1403 5613 c3 -3252 4 -3493 20 -3556 93 -371 307 -656 612 -814 44
-22 639 -289 1323 -592 l1243 -551 1242 551 c683 303 1278 570 1322 592 305
158 519 443 612 814 16 63 17 304 20 3556 l3 3487 -3200 0 -3200 0 3 -3487z
m3268 2895 c131 -176 211 -400 226 -632 7 -112 -9 -459 -47 -1042 -69 -1045
-66 -1347 20 -1764 49 -237 130 -511 236 -800 71 -193 317 -700 340 -700 7 0
76 13 153 29 165 35 220 61 296 143 75 81 99 146 100 268 0 86 -3 101 -32 162
-72 153 -241 252 -395 232 -46 -6 -48 -6 -48 18 0 13 38 341 85 728 46 388 94
786 105 885 31 259 73 448 147 644 202 542 592 1003 1096 1295 l47 28 0 -2896
0 -2896 -667 -2 -667 -3 -31 -120 c-125 -487 -390 -901 -770 -1201 -117 -92
-177 -151 -225 -222 -19 -28 -37 -51 -40 -51 -3 0 -31 36 -63 79 -43 59 -90
105 -180 176 -408 326 -664 720 -792 1219 l-31 120 -667 3 -667 2 0 2896 0
2896 48 -28 c502 -292 892 -753 1095 -1295 74 -196 116 -385 147 -644 11 -99
59 -497 105 -885 47 -387 85 -715 85 -728 0 -24 -2 -24 -48 -18 -153 20 -323
-79 -395 -231 -29 -62 -32 -77 -32 -163 1 -122 25 -187 100 -268 76 -82 131
-108 296 -143 77 -16 146 -29 153 -29 23 0 269 507 340 700 112 305 190 575
240 826 82 411 85 703 16 1738 -38 583 -54 930 -47 1042 11 166 48 307 122
460 44 91 156 254 175 254 6 0 37 -37 71 -82z"/>
<path d="M2600 5685 l0 -1475 113 0 112 0 27 73 c15 39 44 101 65 137 48 82
178 214 261 264 50 30 62 42 62 63 0 70 -164 1385 -186 1493 -61 296 -198 595
-384 840 -33 44 -63 80 -65 80 -3 0 -5 -664 -5 -1475z"/>
<path d="M6530 7080 c-186 -245 -323 -544 -384 -840 -22 -107 -186 -1422 -186
-1493 0 -20 13 -33 63 -64 155 -98 277 -253 332 -421 l17 -52 114 0 114 0 0
1475 c0 811 -2 1475 -5 1475 -2 0 -32 -36 -65 -80z"/>
<path d="M4562 4347 c-76 -234 -210 -538 -332 -758 -33 -59 -60 -112 -60 -117
0 -5 26 -19 58 -30 94 -35 209 -109 293 -189 l79 -75 81 76 c87 82 198 153
292 188 31 11 57 25 57 30 0 5 -27 58 -60 117 -122 220 -256 524 -332 758 -18
56 -35 102 -38 102 -3 0 -20 -46 -38 -102z"/>
<path d="M2600 3210 l0 -600 449 0 448 0 7 115 c7 122 36 314 61 405 8 30 11
57 7 61 -4 3 -59 18 -124 33 -289 67 -505 251 -595 507 l-28 79 -112 0 -113 0
0 -600z"/>
<path d="M6347 3731 c-90 -256 -306 -440 -595 -507 -65 -15 -120 -30 -124 -33
-4 -4 -1 -31 7 -61 25 -91 54 -283 61 -405 l7 -115 448 0 449 0 0 600 0 600
-112 0 -113 0 -28 -79z"/>
<path d="M3961 3068 c-27 -88 -61 -311 -61 -410 l0 -48 251 0 252 0 -7 55
c-24 206 -188 385 -393 429 -29 7 -32 5 -42 -26z"/>
<path d="M5138 3077 c-122 -42 -226 -131 -282 -244 -28 -56 -56 -153 -56 -195
l0 -28 250 0 250 0 0 49 c0 95 -41 361 -66 425 -8 21 -16 20 -96 -7z"/>
<path d="M3950 2196 c0 -31 54 -197 95 -294 73 -169 197 -365 313 -492 l41
-45 1 423 0 422 -225 0 c-185 0 -225 -2 -225 -14z"/>
<path d="M4800 1788 l1 -423 41 45 c116 127 240 323 313 492 41 97 95 263 95
294 0 12 -40 14 -225 14 l-225 0 0 -422z"/>
</g>
</svg>
