<svg width="129" height="26" viewBox="0 0 129 26" fill="none" xmlns="http://www.w3.org/2000/svg">
<path d="M43.6431 23.2323L38.5441 18.198C42.3594 13.1661 41.3191 6.03454 36.2206 2.26917C31.122 -1.4962 23.8958 -0.469504 20.0805 4.56234C16.2652 9.59418 17.3055 16.7258 22.4041 20.4911C26.4997 23.5158 32.1249 23.5158 36.2206 20.4911L41.3217 25.5255C41.9627 26.1582 43.0021 26.1582 43.6431 25.5255C44.2841 24.8929 44.2841 23.8671 43.6431 23.2345L43.6431 23.2323ZM29.3548 19.5195C24.8235 19.5195 21.1501 15.8942 21.1501 11.4221C21.1501 6.95004 24.8235 3.32476 29.3548 3.32476C33.8862 3.32476 37.5596 6.95004 37.5596 11.4221C37.5548 15.8921 33.8842 19.5147 29.3548 19.5195Z" fill="white"/>
<path d="M7.49751 19.2391C6.11766 19.2391 4.8536 18.8963 3.70533 18.2108C2.55707 17.5252 1.65003 16.5969 0.984229 15.4258C0.328076 14.2546 0 12.9692 0 11.5696C0 10.1699 0.328076 8.8845 0.984229 7.71335C1.65003 6.54221 2.55707 5.61387 3.70533 4.92832C4.8536 4.24277 6.11766 3.9 7.49751 3.9C8.61683 3.9 9.64931 4.11423 10.5949 4.5427C11.5502 4.97117 12.3608 5.56626 13.0266 6.32798C13.6924 7.0897 14.1797 7.96567 14.4884 8.95591H12.2015C11.8059 8.00376 11.1884 7.26584 10.3489 6.74216C9.50939 6.21848 8.55893 5.95664 7.49751 5.95664C6.59048 5.95664 5.73169 6.18992 4.92115 6.65647C4.1106 7.1135 3.45445 7.77048 2.95269 8.62742C2.46057 9.48435 2.21452 10.4651 2.21452 11.5696C2.21452 12.6836 2.46057 13.669 2.95269 14.526C3.45445 15.3829 4.1106 16.0447 4.92115 16.5112C5.73169 16.9682 6.59048 17.1968 7.49751 17.1968C8.56858 17.1968 9.51904 16.9301 10.3489 16.3969C11.1884 15.8637 11.8059 15.0973 12.2015 14.0975H14.474C14.1845 15.1163 13.7068 16.0161 13.041 16.7968C12.3752 17.5681 11.5647 18.1679 10.6094 18.5964C9.65413 19.0249 8.61683 19.2391 7.49751 19.2391Z" fill="white"/>
<path d="M50.7947 19.2953C49.4538 19.2953 48.2817 19.043 47.2784 18.5383C46.2848 18.0242 45.5082 17.2339 44.9487 16.1675C44.3988 15.0916 44.1239 13.7443 44.1239 12.1256V4.35608H46.3234V12.0685C46.3234 13.7633 46.7044 15.0487 47.4665 15.9247C48.2383 16.8007 49.338 17.2386 50.7658 17.2386C52.1935 17.2386 53.2885 16.8054 54.0506 15.939C54.8223 15.063 55.2082 13.7728 55.2082 12.0685V4.35608H57.4077V12.1256C57.4077 13.7443 57.128 15.0916 56.5684 16.1675C56.0089 17.2339 55.2323 18.0242 54.2387 18.5383C53.2547 19.043 52.1067 19.2953 50.7947 19.2953Z" fill="white"/>
<path d="M64.0641 4.35608V7.32678C64.3439 6.6698 64.7587 6.08899 65.3086 5.58435C65.8584 5.07019 66.5 4.67029 67.2331 4.38464C67.9759 4.099 68.767 3.95618 69.6063 3.95618C71.5646 3.95618 73.0502 4.55127 74.0632 5.74145C75.0857 6.92212 75.597 8.67883 75.597 11.0116V18.8954H73.3831V11.0402C73.3831 9.33581 73.0068 8.06946 72.2544 7.24109C71.5116 6.41272 70.4456 5.99853 69.0564 5.99853C68.1978 5.99853 67.3923 6.21277 66.6398 6.64123C65.897 7.0697 65.2989 7.67908 64.8455 8.46936C64.3921 9.25964 64.1654 10.1642 64.1654 11.183V18.8954H61.937V4.35608H64.0641Z" fill="white"/>
<path d="M85.5382 18.8954C84.1876 18.8954 83.0879 18.5098 82.239 17.7385C81.39 16.9673 80.9656 15.5724 80.9656 13.5538V6.28418H77.6229V4.35608H80.9656V0.0142822L83.1795 0V4.35608H88.1718V6.28418H83.1795V13.6538C83.1795 14.9583 83.4352 15.8485 83.9465 16.3246C84.4578 16.7911 85.1282 17.0244 85.9579 17.0244H88.1718V18.8954H85.5382Z" fill="white"/>
<path d="M93.6272 4.35608V7.78381C94.0034 6.71741 94.5919 5.87952 95.3926 5.27014C96.2029 4.66077 97.1531 4.35608 98.2432 4.35608H99.6324V6.28418H98.359C97.4715 6.28418 96.6756 6.51269 95.9714 6.96973C95.2768 7.42676 94.7269 8.09326 94.3218 8.96924C93.9166 9.83569 93.714 10.8545 93.714 12.0256V18.8954H91.4856V4.35608H93.6272Z" fill="white"/>
<path d="M103.38 22.0089C103.969 22.0089 104.451 21.8994 104.827 21.6804C105.204 21.4614 105.517 21.1377 105.768 20.7092C106.028 20.2903 106.313 19.6952 106.622 18.9239L106.752 18.5383L100.862 4.37036H103.207L107.591 15.0535L107.924 16.2675L108.3 15.0677L112.641 4.37036L115 4.35608L109.168 18.4812C108.57 19.9285 108.035 21.0187 107.562 21.7518C107.09 22.4945 106.53 23.0325 105.884 23.3657C105.237 23.699 104.388 23.8656 103.337 23.8656H100.935V22.0089H103.38Z" fill="white"/>
<path d="M120.868 0C121.308 0 121.705 0.0977941 122.056 0.293382C122.407 0.485539 122.681 0.754902 122.877 1.10147C123.074 1.44461 123.172 1.83235 123.172 2.26471C123.172 2.70735 123.074 3.10368 122.877 3.45368C122.681 3.80025 122.409 4.07132 122.061 4.26691C121.717 4.4625 121.324 4.56029 120.883 4.56029H118.811V7H118V0H120.868ZM120.852 3.82941C121.134 3.82941 121.391 3.76078 121.622 3.62353C121.853 3.48627 122.034 3.29926 122.164 3.0625C122.295 2.82574 122.361 2.56152 122.361 2.26985C122.361 1.99191 122.294 1.73627 122.159 1.50294C122.025 1.26618 121.841 1.07917 121.606 0.941912C121.376 0.801225 121.119 0.730882 120.837 0.730882H118.811V3.82941H120.852Z" fill="white"/>
<path d="M125.921 0.730882H123.663V0H129V0.730882H126.732V7H125.921V0.730882Z" fill="white"/>
</svg>
